<?xml version="1.0" encoding="UTF-8"?>
<svg width="40px" height="40px" viewBox="0 0 180 180" version="1.1" xmlns="http://www.w3.org/2000/svg" xmlns:xlink="http://www.w3.org/1999/xlink">
    <!-- Generator: Sketch 43.2 (39069) - http://www.bohemiancoding.com/sketch -->
    <title>bimo_logo</title>
    <desc>Created with Sketch.</desc>
    <defs>
        <path d="M0,149.999702 C0,166.568961 13.4372652,180.001 30.0012978,180.001 L149.998702,180.001 C166.567961,180.001 180,166.563735 180,149.999702 L180,30.0022978 C180,13.4330385 166.562735,0.001 149.998702,0.001 L30.0012978,0.001 C13.4320385,0.001 0,13.4382652 0,30.0022978 L0,149.999702 Z" id="path-1"></path>
    </defs>
    <g id="Symbols" stroke="none" stroke-width="1" fill="none" fill-rule="evenodd">
        <g id="bimo_logo">
            <g id="Group-29">
                <mask id="mask-2" fill="white">
                    <use xlink:href="#path-1"></use>
                </mask>
                <use id="mask" fill="#111111" xlink:href="#path-1"></use>
                <path d="M90.7799,90.6954 C84.7559,90.6954 65.4519,90.5984 60.8329,90.6954 C52.8409,90.8624 53.0119,77.8934 60.8329,77.8934 L90.7799,77.8934 L90.7799,90.6954 Z" id="Fill-2" fill="#FFFFFF" mask="url(#mask-2)"></path>
                <path d="M62.0153,88.3642 C63.6883,88.6722 65.1713,87.5432 65.2693,94.4162 C65.3683,101.2882 66.1553,107.1352 64.6793,107.7502 C63.2033,108.3662 38.0083,113.1872 32.5953,119.8542 C27.1823,126.5222 26.6903,129.7022 26.1983,131.8562 C25.7063,134.0102 21.7693,177.6042 21.5733,181.1942 C21.3763,184.7842 21.3763,194.0162 31.3163,196.1702 C41.2563,198.3242 81.6083,195.5272 93.5683,196.1702 L90.1113,88.3642 L62.0153,88.3642 Z" id="Fill-4" fill="#FFFFFF" mask="url(#mask-2)"></path>
                <path d="M89.5791,90.6954 C95.6031,90.6954 114.9071,90.5984 119.5261,90.6954 C127.5181,90.8624 127.3471,77.8934 119.5261,77.8934 L89.5791,77.8934 L89.5791,90.6954 Z" id="Fill-6" fill="#FFFFFF" mask="url(#mask-2)"></path>
                <path d="M117.9281,88.3642 C116.2551,88.6722 114.7721,87.5432 114.6741,94.4162 C114.5751,101.2882 113.7881,107.1352 115.2641,107.7502 C116.7401,108.3662 141.9351,113.1872 147.3481,119.8542 C152.7611,126.5222 153.2531,129.7022 153.7451,131.8562 C154.2371,134.0102 158.1741,177.6042 158.3701,181.1942 C158.5671,184.7842 158.5671,194.0162 148.6271,196.1702 C138.6871,198.3242 98.3351,195.5272 86.3751,196.1702 L89.8321,88.3642 L117.9281,88.3642 Z" id="Fill-8" fill="#FFFFFF" mask="url(#mask-2)"></path>
                <path d="M96.2308,73.0978 C91.8548,68.7668 88.4488,59.6328 110.1368,36.3078 L110.7448,42.8128 L112.3468,33.9528 C112.3468,33.9528 126.6768,19.1578 133.0598,15.8968 C133.0598,15.8968 130.8448,20.6028 130.4478,22.1938 C130.0768,23.6778 135.4048,9.7958 150.5078,8.0478 C157.3978,7.2498 157.0988,12.6358 149.9488,14.7868 C148.9558,15.0848 152.4098,15.6038 154.8488,13.9228 C156.3508,12.8868 145.3228,33.9958 135.5488,33.2768 C133.1588,33.1008 137.5598,34.7408 139.7108,34.4758 C140.7598,34.3458 125.4638,54.4108 123.8918,55.7438 C121.7908,57.5248 114.3718,57.1548 113.2998,57.8198 C112.2278,58.4858 121.2448,59.4478 122.4808,59.0028 C122.9788,58.8228 113.4888,70.2898 109.3358,71.3768 C105.7918,72.3048 101.1188,70.7028 99.9008,72.8438 C99.3838,73.7538 97.2338,74.0908 96.2308,73.0978" id="Fill-10" fill="#FCFDFF" mask="url(#mask-2)"></path>
                <path d="M149.4274,12.1389 C149.4274,12.1389 139.7994,19.4809 130.2674,28.4149 C125.0764,33.2799 104.9634,57.0229 96.2304,73.0979 C93.3204,78.4559 88.3924,87.0519 84.1894,96.6399 L90.6534,90.5579 C97.8184,75.1509 112.6684,50.4919 120.3264,41.0179 C131.4674,27.2359 145.0784,15.5779 149.4274,12.1389" id="Fill-12" fill="#000000" mask="url(#mask-2)"></path>
                <path d="M149.4274,12.1389 C149.4274,12.1389 139.7994,19.4809 130.2674,28.4149 C125.0764,33.2799 104.9634,57.0229 96.2304,73.0979 C93.3204,78.4559 88.3924,87.0519 84.1894,96.6399 L90.6534,90.5579 C97.8184,75.1509 112.6684,50.4919 120.3264,41.0179 C131.4674,27.2359 145.0784,15.5779 149.4274,12.1389 Z" id="Stroke-14" stroke="#FFFFFF" stroke-width="0.344" mask="url(#mask-2)"></path>
                <polygon id="Fill-16" fill="#000000" mask="url(#mask-2)" points="88.543 163.892 91.096 163.892 91.096 149.438 88.543 149.438"></polygon>
                <path d="M89.8016,154.0759 C94.7636,154.0759 98.8266,149.9769 98.8266,146.0939 C98.8266,142.2469 94.7636,140.0889 89.8016,140.0889 C84.8756,140.0889 80.8126,142.2469 80.8126,146.0939 C80.8126,149.9769 84.8756,154.0759 89.8016,154.0759" id="Fill-18" fill="#2E2D29" mask="url(#mask-2)"></path>
                <path d="M89.7297,141.2039 C91.7787,141.2039 93.4327,141.8509 93.4327,142.6059 C93.4327,143.3609 91.7787,143.9729 89.7297,143.9729 C87.7517,143.9729 86.0987,143.3609 86.0987,142.6059 C86.0987,141.8509 87.7517,141.2039 89.7297,141.2039" id="Fill-19" fill="#FFFFFF" mask="url(#mask-2)"></path>
                <path d="M100.7678,156.8083 C97.9988,167.1633 94.1158,173.6353 89.8018,173.6353 C85.5588,173.6353 81.6758,167.1633 78.8718,156.8083 C82.0358,160.3323 85.8108,162.3453 89.8018,162.3453 C93.8648,162.3453 97.6398,160.3323 100.7678,156.8083" id="Fill-20" fill="#2E2D29" mask="url(#mask-2)"></path>
                <path d="M94.9072,170.4712 C93.3252,168.4222 91.5992,167.3072 89.8012,167.3072 C88.0402,167.3072 86.3502,168.4222 84.7682,170.4712 C86.3502,172.5202 88.0402,173.6352 89.8012,173.6352 C91.5992,173.6352 93.3252,172.5202 94.9072,170.4712" id="Fill-21" fill="#CA1F27" mask="url(#mask-2)"></path>
                <path d="M49.9116,124.5074 C43.6016,132.1304 43.1326,142.2174 48.8556,146.9554 C54.6026,151.7174 64.4076,149.3714 70.7176,141.7484 C77.0276,134.1484 79.6546,120.8244 73.9076,116.0864 C68.1846,111.3244 56.2216,116.9074 49.9116,124.5074" id="Fill-22" fill="#2E2D29" mask="url(#mask-2)"></path>
                <path d="M63.024,121.0592 C60.631,123.9442 60.444,127.7912 62.625,129.5972 C64.807,131.4032 68.536,130.5122 70.929,127.6042 C73.345,124.7182 74.33,119.6522 72.149,117.8452 C69.967,116.0392 65.417,118.1742 63.024,121.0592" id="Fill-23" fill="#FFFFFF" mask="url(#mask-2)"></path>
                <path d="M69.4512,116.7431 C71.1632,116.7431 72.5712,118.0801 72.5712,119.7461 C72.5712,121.4111 71.1632,122.7481 69.4512,122.7481 C67.7392,122.7481 66.3312,121.4111 66.3312,119.7461 C66.3312,118.0801 67.7392,116.7431 69.4512,116.7431" id="Fill-24" fill="#2E2D29" mask="url(#mask-2)"></path>
                <path d="M130.5563,124.5074 C136.8663,132.1304 137.3353,142.2174 131.5883,146.9554 C125.8653,151.7174 116.0363,149.3714 109.7263,141.7484 C103.4403,134.1484 100.8133,120.8244 106.5363,116.0864 C112.2833,111.3244 124.2463,116.9074 130.5563,124.5074" id="Fill-25" fill="#2E2D29" mask="url(#mask-2)"></path>
                <path d="M117.4439,121.0592 C119.8369,123.9442 120.0009,127.7912 117.8429,129.5972 C115.6609,131.4032 111.9079,130.5122 109.5159,127.6042 C107.1229,124.7182 106.1379,119.6522 108.2959,117.8452 C110.4769,116.0392 115.0279,118.1742 117.4439,121.0592" id="Fill-26" fill="#FFFFFF" mask="url(#mask-2)"></path>
                <path d="M111.0167,116.7431 C109.2807,116.7431 107.8967,118.0801 107.8967,119.7461 C107.8967,121.4111 109.2807,122.7481 111.0167,122.7481 C112.7287,122.7481 114.1367,121.4111 114.1367,119.7461 C114.1367,118.0801 112.7287,116.7431 111.0167,116.7431" id="Fill-27" fill="#2E2D29" mask="url(#mask-2)"></path>
                <path d="M69.3772,117.4717 C69.0202,117.4717 68.7102,117.7577 68.7102,118.1147 C68.7102,118.4477 69.0202,118.7337 69.3772,118.7337 C69.7342,118.7337 70.0442,118.4477 70.0442,118.1147 C70.0442,117.7577 69.7342,117.4717 69.3772,117.4717 M111.1882,117.4717 C110.8072,117.4717 110.5212,117.7577 110.5212,118.1147 C110.5212,118.4477 110.8072,118.7337 111.1882,118.7337 C111.5452,118.7337 111.8312,118.4477 111.8312,118.1147 C111.8312,117.7577 111.5452,117.4717 111.1882,117.4717" id="Fill-28" fill="#FFFFFF" mask="url(#mask-2)"></path>
            </g>
        </g>
    </g>
</svg>